# xmcd
#
# Track frame offsets:
#  150
#  4230
#  13919
#  27482
#  41551
#  64406
#  75555
#  89553
#  109081
#  121580
#  135409
#  148246
#  162484
#  178575
#  189940
#
# Disc length: 2699 seconds
#
# Revision: 0
# Processed by: cddbd v1.5.2PL0 Copyright (c) Steve Scherf et al.
# Submitted via: Collectorz.com_Music_Collector 6.11
#
DISCID=ca0a890f
DTITLE=Various Artist - Dutch Radio Collection (NCRV Radio 1960-1980) [CD2)
DYEAR=2007
DGENRE=Easy Listening
TTITLE0=Tune: Make Mine Millers
TTITLE1=I Could Write A Book
TTITLE2=I'm Beginning To See The Light
TTITLE3=Blues In The Closet
TTITLE4=He's Funny That Way
TTITLE5=Darling Je Vous Aime Beaucoup
TTITLE6=What A Wonderful World
TTITLE7=Deep Purple
TTITLE8=Tea For Two
TTITLE9=The Song Is Ended
TTITLE10=Princess Papooli
TTITLE11=Three Little Words
TTITLE12=I've Got You Under My Skin
TTITLE13=Please Don't Talk About Me When I'm Gone
TTITLE14=Happy Journey
EXTD=
EXTT0=
EXTT1=
EXTT2=
EXTT3=
EXTT4=
EXTT5=
EXTT6=
EXTT7=
EXTT8=
EXTT9=
EXTT10=
EXTT11=
EXTT12=
EXTT13=
EXTT14=
PLAYORDER=
